<svg width="15" height="16" viewBox="0 0 15 16" fill="none" xmlns="http://www.w3.org/2000/svg">
<circle cx="7.5" cy="8" r="7.5" fill="#DBD5E5"/>
<path fill-rule="evenodd" clip-rule="evenodd" d="M9.28132 3.52182C9.94161 3.63734 10.3321 4.55198 10.1535 5.56473C9.97487 6.57748 9.2948 7.30483 8.63451 7.18932C7.97422 7.0738 7.58374 6.15916 7.76235 5.14641C7.94096 4.13366 8.62103 3.40631 9.28132 3.52182ZM7.22436 5.15179C7.40645 6.16735 7.03014 7.08619 6.3625 7.20709C5.707 7.32799 5.02722 6.60259 4.84513 5.58703C4.66305 4.57147 5.03935 3.65263 5.707 3.53173C6.3625 3.41083 7.04228 4.13623 7.22436 5.15179ZM11.9873 6.3691C12.4978 6.73709 12.4465 7.67561 11.8726 8.46535C11.2987 9.25508 10.4197 9.59697 9.90915 9.22898C9.39863 8.86099 9.44999 7.92247 10.0239 7.13273C10.5977 6.343 11.4768 6.00111 11.9873 6.3691ZM4.97863 7.14653C5.5613 7.93238 5.60985 8.8754 5.10002 9.25019C4.60232 9.62498 3.71618 9.28646 3.13351 8.48852C2.55084 7.70267 2.50228 6.75965 3.01212 6.38486C3.52195 6.02216 4.4081 6.36068 4.97863 7.14653ZM7.50336 7.90805C6.80681 7.92419 6.46693 8.36553 6.04021 8.91964C5.82739 9.19599 5.59297 9.5004 5.28193 9.79409C3.89809 11.0998 4.16515 12.2242 5.01488 12.4539C5.47016 12.577 5.88711 12.3599 6.318 12.1356C6.69132 11.9412 7.07511 11.7414 7.50336 11.7527H7.5155H7.52764C7.95363 11.7415 8.33562 11.9391 8.70707 12.1313C9.14007 12.3553 9.55875 12.5719 10.0161 12.4418C10.8658 12.2121 11.1208 11.0756 9.73692 9.782C9.41719 9.48805 9.17774 9.18169 8.96061 8.9039C8.53476 8.35905 8.19478 7.92407 7.50336 7.90805Z" fill="white"/>
</svg>
